<?xml version="1.0" encoding="UTF-8" standalone="no"?><!DOCTYPE svg PUBLIC "-//W3C//DTD SVG 1.1//EN" "http://www.w3.org/Graphics/SVG/1.1/DTD/svg11.dtd"><svg width="100%" height="100%" viewBox="0 0 570 246" version="1.1" xmlns="http://www.w3.org/2000/svg" xmlns:xlink="http://www.w3.org/1999/xlink" xml:space="preserve" xmlns:serif="http://www.serif.com/" style="fill-rule:evenodd;clip-rule:evenodd;stroke-linejoin:round;stroke-miterlimit:2;"><g><clipPath id="_clip1"><rect x="38.229" y="51.312" width="492.708" height="142.792"/></clipPath><g clip-path="url(#_clip1)"><rect x="440.25" y="52.375" width="93" height="13.083" style="fill:#a1a6ae;"/><rect x="440.25" y="84.333" width="93" height="13.083" style="fill:#a1a6ae;"/><rect x="440.25" y="116.292" width="93" height="13.083" style="fill:#a1a6ae;"/><rect x="440.25" y="148.208" width="93" height="13.083" style="fill:#a1a6ae;"/><rect x="440.25" y="180.167" width="93" height="13.083" style="fill:#a1a6ae;"/><path d="M35.833,52.708l0,24.459l36.667,-0l-0,116.041l27.458,0l0,-116.041l36.667,-0l0,-24.459l-100.792,0Z" style="fill:#0563a5;fill-rule:nonzero;"/><path d="M239.042,52.708l-0,86.042l-55.625,-86.042l-24.5,0l-0,140.5l27.458,0l0,-86.25l55.625,86.25l24.458,0l0,-140.5l-27.416,0Z" style="fill:#0563a5;fill-rule:nonzero;"/><path d="M385.833,178.375c-10.833,11.042 -23.875,16 -39.666,16c-15,0 -27.625,-5.125 -37.875,-15.375c-6.125,-6.125 -9.875,-13.25 -11.459,-21.125c-1.583,-7.875 -2.375,-19.542 -2.375,-34.917c0,-15.375 0.792,-27.041 2.375,-34.916c1.584,-8.084 5.334,-15 11.459,-21.084c10.291,-10.25 22.916,-15.375 37.875,-15.375c31.958,0 49.125,20.5 52.875,45l-27.625,0c-3.334,-13.625 -11.625,-20.5 -25.25,-20.5c-7.292,0 -13.209,2.584 -17.542,7.5c-5.125,6.5 -6.708,11.667 -6.708,39.459c-0,27.625 1.166,33.166 6.708,39.666c4.125,4.917 10.042,7.292 17.542,7.292c8.083,0 14.625,-2.583 19.541,-7.875c4.125,-4.75 6.292,-11.042 6.292,-18.75l0,-5.333l-19.792,-0l0,-22.875l47,-0l0,20.5c0.042,20.458 -3.708,32.458 -13.375,42.708" style="fill:#0563a5;fill-rule:nonzero;"/><path d="M592.062,59.104l0,44.125l-7.708,0l0,-44.125l-14.083,0l-0,-6.958l35.875,-0l-0,6.958l-14.084,0Z" style="fill:#0563a5;fill-rule:nonzero;"/></g></g></svg>