<?xml version="1.0" encoding="UTF-8" standalone="no"?><!DOCTYPE svg PUBLIC "-//W3C//DTD SVG 1.1//EN" "http://www.w3.org/Graphics/SVG/1.1/DTD/svg11.dtd"><svg width="100%" height="100%" viewBox="0 0 498 144" version="1.1" xmlns="http://www.w3.org/2000/svg" xmlns:xlink="http://www.w3.org/1999/xlink" xml:space="preserve" xmlns:serif="http://www.serif.com/" style="fill-rule:evenodd;clip-rule:evenodd;stroke-linejoin:round;stroke-miterlimit:2;"><g><clipPath id="_clip1"><rect x="2.396" y="0.271" width="492.708" height="142.792"/></clipPath><g clip-path="url(#_clip1)"><rect x="404.417" y="1.333" width="93" height="13.083" style="fill:#a1a6ae;"/><rect x="404.417" y="33.292" width="93" height="13.083" style="fill:#a1a6ae;"/><rect x="404.417" y="65.25" width="93" height="13.083" style="fill:#a1a6ae;"/><rect x="404.417" y="97.167" width="93" height="13.083" style="fill:#a1a6ae;"/><rect x="404.417" y="129.125" width="93" height="13.083" style="fill:#a1a6ae;"/><path d="M0,1.667l0,24.458l36.667,-0l-0,116.042l27.458,-0l0,-116.042l36.667,0l-0,-24.458l-100.792,-0Z" style="fill:#0563a5;fill-rule:nonzero;"/><path d="M203.208,1.667l0,86.041l-55.625,-86.041l-24.5,-0l0,140.5l27.459,-0l-0,-86.25l55.625,86.25l24.458,-0l0,-140.5l-27.417,-0Z" style="fill:#0563a5;fill-rule:nonzero;"/><path d="M350,127.333c-10.833,11.042 -23.875,16 -39.667,16c-15,0 -27.625,-5.125 -37.875,-15.375c-6.125,-6.125 -9.875,-13.25 -11.458,-21.125c-1.583,-7.875 -2.375,-19.541 -2.375,-34.916c0,-15.375 0.792,-27.042 2.375,-34.917c1.583,-8.083 5.333,-15 11.458,-21.083c10.292,-10.25 22.917,-15.375 37.875,-15.375c31.959,-0 49.125,20.5 52.875,45l-27.625,-0c-3.333,-13.625 -11.625,-20.5 -25.25,-20.5c-7.291,-0 -13.208,2.583 -17.541,7.5c-5.125,6.5 -6.709,11.666 -6.709,39.458c0,27.625 1.167,33.167 6.709,39.667c4.125,4.916 10.041,7.291 17.541,7.291c8.084,0 14.625,-2.583 19.542,-7.875c4.125,-4.75 6.292,-11.041 6.292,-18.75l-0,-5.333l-19.792,0l0,-22.875l47,0l0,20.5c0.042,20.458 -3.708,32.458 -13.375,42.708" style="fill:#0563a5;fill-rule:nonzero;"/></g></g></svg>